<?xml version="1.0" encoding="utf-8"?>
<!-- Generator: Adobe Illustrator 25.0.0, SVG Export Plug-In . SVG Version: 6.00 Build 0)  -->
<svg version="1.1" id="Layer_1" xmlns="http://www.w3.org/2000/svg" xmlns:xlink="http://www.w3.org/1999/xlink" x="0px" y="0px"
	 viewBox="0 0 300 192.89" style="enable-background:new 0 0 300 192.89;" xml:space="preserve">
<style type="text/css">
	.st0{fill:url(#SVGID_1_);}
	.st1{fill:url(#SVGID_2_);}
</style>
<g>
	<linearGradient id="SVGID_1_" gradientUnits="userSpaceOnUse" x1="91.1446" y1="9.4531" x2="91.1446" y2="183.4358">
		<stop  offset="0" style="stop-color:#FCD3AA"/>
		<stop  offset="1" style="stop-color:#AE68A9"/>
	</linearGradient>
	<path class="st0" d="M174.21,26.12v140.64c0,9.25-7.42,16.67-16.53,16.67c-9.25,0-16.67-7.42-16.67-16.67v-55.89
		c0-9.1-7.42-16.53-16.67-16.53c-9.11,0-16.53,7.42-16.53,16.53v14.71c0,9.1-7.56,16.53-16.67,16.53c-9.25,0-16.67-7.42-16.67-16.53
		v-26.2c0,0.42,0,0.98-0.14,1.4c-0.56-8.69-7.7-15.41-16.39-15.41c-8.83,0-15.97,6.72-16.53,15.41c-0.14-0.42-0.14-0.98-0.14-1.4
		v20.87c0,9.1-7.42,16.53-16.67,16.53c-9.11,0-16.53-7.42-16.53-16.53V53.72c0-9.11,7.42-16.67,16.53-16.67
		c9.25,0,16.67,7.56,16.67,16.67v1.82c0,9.1,7.42,16.53,16.67,16.53c9.1,0,16.53-7.42,16.53-16.53V45.17
		c0-9.25,7.42-16.67,16.67-16.67c9.11,0,16.67,7.42,16.67,16.67v3.36c0,9.1,7.42,16.53,16.53,16.53c9.25,0,16.67-7.42,16.67-16.53
		V26.12c0-9.25,7.42-16.67,16.67-16.67C166.79,9.45,174.21,16.88,174.21,26.12z"/>
	<linearGradient id="SVGID_2_" gradientUnits="userSpaceOnUse" x1="241.9971" y1="33.7222" x2="241.9971" y2="167.7022">
		<stop  offset="0" style="stop-color:#FCD3AA"/>
		<stop  offset="1" style="stop-color:#AE68A9"/>
	</linearGradient>
	<path class="st1" d="M291.92,94.47V140c0,9.23-7.43,16.67-16.67,16.67c-4.55,0-8.73-1.88-11.76-4.91
		c-2.96-2.96-4.83-7.14-4.83-11.76v2.09c0-9.16-7.5-16.59-16.67-16.59c-9.16,0-16.67,7.43-16.67,16.59v8.95
		c0,9.16-7.43,16.67-16.59,16.67c-4.62,0-8.8-1.88-11.76-4.91c-3.03-3.03-4.91-7.14-4.91-11.76V50.39c0-9.23,7.43-16.67,16.67-16.67
		c9.16,0,16.59,7.43,16.59,16.67v43c0,4.55,1.88,8.73,4.91,11.76c3.03,3.03,7.14,4.91,11.76,4.91c9.16,0,16.67-7.5,16.67-16.67v1.08
		c0-9.16,7.43-16.67,16.59-16.67C284.49,77.81,291.92,85.31,291.92,94.47z"/>
</g>
</svg>
