<?xml version="1.0" encoding="utf-8"?>
<!-- Generator: Adobe Illustrator 25.0.0, SVG Export Plug-In . SVG Version: 6.00 Build 0)  -->
<svg version="1.1" id="Layer_1" xmlns="http://www.w3.org/2000/svg" xmlns:xlink="http://www.w3.org/1999/xlink" x="0px" y="0px"
	 viewBox="0 0 300 192.89" style="enable-background:new 0 0 300 192.89;" xml:space="preserve">
<style type="text/css">
	.st0{opacity:0.01;}
	.st1{fill:#FFFFFF;}
</style>
<g class="st0">
	<path class="st1" d="M171.93,26.26v138.25c0,9.09-7.3,16.39-16.25,16.39c-9.09,0-16.39-7.3-16.39-16.39v-54.94
		c0-8.95-7.3-16.25-16.39-16.25c-8.95,0-16.25,7.3-16.25,16.25v14.46c0,8.95-7.44,16.25-16.39,16.25c-9.09,0-16.39-7.3-16.39-16.25
		V98.28c0,0.41,0,0.96-0.14,1.38c-0.55-8.54-7.57-15.15-16.11-15.15c-8.68,0-15.7,6.61-16.25,15.15c-0.14-0.41-0.14-0.96-0.14-1.38
		v20.52c0,8.95-7.3,16.25-16.39,16.25c-8.95,0-16.25-7.3-16.25-16.25V53.39c0-8.95,7.3-16.39,16.25-16.39
		c9.09,0,16.39,7.44,16.39,16.39v1.79c0,8.95,7.3,16.25,16.39,16.25c8.95,0,16.25-7.3,16.25-16.25V44.99
		c0-9.09,7.3-16.39,16.39-16.39c8.95,0,16.39,7.3,16.39,16.39v3.31c0,8.95,7.3,16.25,16.25,16.25c9.09,0,16.39-7.3,16.39-16.25
		V26.26c0-9.09,7.3-16.39,16.39-16.39C164.63,9.87,171.93,17.17,171.93,26.26z"/>
	<path class="st1" d="M292.33,93.45v44.75c0,9.08-7.31,16.38-16.38,16.38c-4.47,0-8.58-1.84-11.56-4.82
		c-2.91-2.91-4.75-7.02-4.75-11.56v2.06c0-9.01-7.38-16.31-16.38-16.31c-9.01,0-16.38,7.3-16.38,16.31v8.79
		c0,9.01-7.3,16.38-16.31,16.38c-4.54,0-8.65-1.84-11.56-4.82c-2.98-2.98-4.82-7.02-4.82-11.56V50.11c0-9.08,7.31-16.38,16.38-16.38
		c9.01,0,16.31,7.31,16.31,16.38v42.27c0,4.47,1.84,8.58,4.82,11.56c2.98,2.98,7.02,4.82,11.56,4.82c9.01,0,16.38-7.38,16.38-16.38
		v1.06c0-9.01,7.31-16.38,16.31-16.38C285.03,77.07,292.33,84.44,292.33,93.45z"/>
</g>
</svg>
